<?xml version="1.0" encoding="utf-8"?>
<!-- Generator: Adobe Illustrator 17.1.0, SVG Export Plug-In . SVG Version: 6.00 Build 0)  -->
<!DOCTYPE svg PUBLIC "-//W3C//DTD SVG 1.1//EN" "http://www.w3.org/Graphics/SVG/1.1/DTD/svg11.dtd">
<svg version="1.1" id="Layer_1" xmlns="http://www.w3.org/2000/svg" xmlns:xlink="http://www.w3.org/1999/xlink" x="0px" y="0px"
	 viewBox="0 0 2318 545" enable-background="new 0 0 2318 545" xml:space="preserve">
<g display="none">
	<path display="inline" fill="#FFFFFF" d="M750.6,327.1"/>
	<g display="inline">
		<path fill="#FFFFFF" d="M121.6,533.3H54.3c0,0-26.8,1.3-39.7-25.1c0,0-10.9-20.6,2.4-42.1l32.2-55.7L121.6,533.3z"/>
		<path fill="#FFFFFF" d="M462.7,533.3H154.1L65.2,382.5l63.5-110L218.4,424l50.6-0.1L153.9,228.8L267.3,32.4
			c0,0,11.6-20.8,37.3-20.8c0,0,25.4-1.7,39.4,24.2l91.5,158.5l-69.7,110.1l-61.2-100.9l-17.4,30.3L462.7,533.3z"/>
		<path fill="#FFFFFF" d="M452,222.9l-70.2,114l113.1,196.5l61.4,0c0,0,24,0.7,37.2-22.6c0,0,14.2-20-2.2-46.6L452,222.9z"/>
	</g>
	<g display="inline">
		<path fill="#FFFFFF" d="M824,11.6c8.3,0,15.5,3.5,20.2,13.4l137.4,258.4H906l-17.4-35.1H781.2l30.8-62.8h45.4L824,118.4
			l-81.8,164.9h-75.8L803.8,25C808.5,15.1,815.7,11.6,824,11.6z"/>
		<path fill="#FFFFFF" d="M1223.2,73.7h-111.6c-16.7,0-41.7-2.7-41.7,21.3s25,21.3,41.7,21.3h71.9c47.9,0,83.3,26.9,83.3,85.1
			c0,56-38.2,82-83.3,82h-180.1l31-62.2h124.2c16.7,0,41.7,2.7,41.7-21.3c0-24-25-21.3-41.7-21.3h-71.9c-47.9,0-83.3-26.9-83.3-85.1
			c0-56,38.4-81.8,83.3-81.8h167.7L1223.2,73.7z"/>
		<path fill="#FFFFFF" d="M1493,191.1c-23.5,0-78.5,0-102.1,0l31.2-62h53.5c16.3,0,29.8-5.2,29.8-27.7c0-21.5-12.4-27.7-29.8-27.7
			h-96.3v210.9h-66.5V11.6H1493c50.8,0,76.4,31.6,78.7,71.1c0.6,10.1,0.2,20.9,0.2,31C1571.9,156.2,1546.5,191.1,1493,191.1z"/>
		<path fill="#FFFFFF" d="M1616.3,283.4V11.6h66.7v271.7H1616.3z"/>
		<path fill="#FFFFFF" d="M2001,283.4h-76.9l-46.3-92.3H1820l31-62h53.5c16.3,0,29.8-5.2,29.8-27.7c0-21.5-12.4-27.7-29.8-27.7
			h-96.3v210.9h-66.5V11.6h180.4c50.6,0,76.2,31.6,78.5,71.1c0.6,10.1,0.2,20.9,0.2,31c0,33.3-15.7,62-48.5,72.9L2001,283.4z"/>
		<path fill="#FFFFFF" d="M2307.7,11.6l-31.6,62.8h-158.9v146.9H2299v62h-248.3V11.6H2307.7z M2129,178.1l31.6-62.8h115.5v62.8H2129
			z"/>
	</g>
	<g display="inline">
		<path fill="#FFFFFF" d="M731.5,387.6c-20.3,0-18.9,0-39.1,0c-17,0-29.5-9.5-29.5-30.1c0-19.8,13.5-28.9,29.5-28.9h64.2l-6.7,13.4
			c-2.8-0.2-48.7,0-51.1,0c-13.3,0-21.1,3.5-21.1,15.3c0,9,4,16.8,16.7,17c20.3,0,20.1,0,40.3,0c17,0,29.5,9.5,29.5,30.1
			c0,19.8-13.5,28.9-29.5,28.9h-70.2l6.7-13.4c2.8,0.2,52.2,0,54.7,0c10.6,0,23.8,1.2,23.8-16.1
			C749.7,389.6,738.9,387.7,731.5,387.6z"/>
		<path fill="#FFFFFF" d="M927.5,433.3c-28,0-41.3-18.3-41.3-40.6v-23.6c0-22.3,13.4-40.6,41.3-40.6h26c28,0,41.3,18.2,41.3,40.6
			v23.6c0,22.3-13.3,40.6-41.3,40.6H927.5z M937,341.7c-16.4,0-36.4,2.6-36.4,29v20.3c0,26.4,20,29,36.4,29h7
			c16.4,0,36.5-2.6,36.5-29v-20.3c0-26.4-20-29-36.5-29H937z"/>
		<path fill="#FFFFFF" d="M1126.2,433.3V328.5c30.4,0,61.4,0,91.8,0l-6.7,13.3h-70.8v91.5H1126.2z M1206.1,387.6h-61l6.7-13.3h54.3
			V387.6z"/>
		<path fill="#FFFFFF" d="M1331.6,328.5h95.5l-6.7,13.3h-33.8v91.5h-14.4v-91.5c-11.8,0-22.4,0-34.2,0L1331.6,328.5z"/>
		<path fill="#FFFFFF" d="M1606.8,387.6c-20.3,0-18.9,0-39.1,0c-17,0-29.5-9.5-29.5-30.1c0-19.8,13.5-28.9,29.5-28.9h64.2l-6.7,13.4
			c-2.8-0.2-48.7,0-51.1,0c-13.3,0-21.1,3.5-21.1,15.3c0,9,4,16.8,16.7,17c20.3,0,20.1,0,40.3,0c17,0,29.5,9.5,29.5,30.1
			c0,19.8-13.5,28.9-29.5,28.9h-70.2l6.7-13.4c2.8,0.2,52.2,0,54.7,0c10.6,0,23.8,1.2,23.8-16.1
			C1625,389.6,1614.2,387.7,1606.8,387.6z"/>
		<path fill="#FFFFFF" d="M1767.9,433.3V328.5c30.4,0,61.4,0,91.8,0l-6.7,13.3h-70.8V420h74.5v13.3H1767.9z M1847.8,387.6h-61
			l6.7-13.3h54.3V387.6z"/>
		<path fill="#FFFFFF" d="M2084.4,433.3h-16.6l-17.9-35.6h-40.3l6.7-13.5h30.9c12.4,0,22.7-3.9,22.7-21.1c0-16.4-9.4-21.2-22.7-21.2
			h-45.8v91.3H1987V328.5c22.8,0,44.3,0,67,0c19.6,0,29.5,12.2,30.4,27.4c0.2,3.9,0.1,8.1,0.1,12c0,12.9-6.1,23.9-18.7,28.1
			L2084.4,433.3z"/>
		<path fill="#FFFFFF" d="M2244.6,428.2l-47.5-99.6h16.3l38.9,84.4l38.9-84.4h16.3l-47.4,99.6c-1.6,3.1-4.6,5.2-7.9,5.2
			C2249.2,433.3,2246.2,431.3,2244.6,428.2z"/>
	</g>
	<g display="inline">
		<path fill="#FFFFFF" d="M1696.2,532.3h-9.6v-55.8h9.6V532.3z"/>
		<path fill="#FFFFFF" d="M1737,478.6c3.4,1.5,6.4,3.5,8.9,6c2.5,2.5,4.5,5.5,6,8.9c1.5,3.4,2.2,7,2.2,10.9s-0.7,7.5-2.2,10.9
			c-1.5,3.4-3.5,6.4-6,8.9c-2.5,2.5-5.5,4.5-8.9,6c-3.4,1.5-7,2.2-10.9,2.2h-9.9l3.9-9.6h6c2.4,0,4.8-0.5,7-1.4c2.2-0.9,4.2-2.2,6-4
			c1.7-1.8,3-3.7,4-5.9c0.9-2.2,1.4-4.6,1.4-7.1c0-2.4-0.5-4.8-1.4-7c-0.9-2.2-2.2-4.2-4-6c-1.8-1.7-3.8-3-6-4
			c-2.2-0.9-4.6-1.4-7-1.4h-13.6v23.2v13.6v9.6h-9.6v-55.9h23.2C1729.9,476.4,1733.6,477.1,1737,478.6z"/>
		<path fill="#FFFFFF" d="M1769.2,486v13.6h20.8l2.4,9.6h-23.2v13.6h28v9.6h-37.6v-55.9h37.6v9.6H1769.2z"/>
		<path fill="#FFFFFF" d="M1862.3,532.3h-10.5l-4.3-9.6l-4.3-9.6l-11.3-25.1l-11.3,25.1h14.5l4.3,9.6h-23.2l-4.3,9.6h-10.5
			l25.2-55.9h10.5L1862.3,532.3z"/>
		<path fill="#FFFFFF" d="M1903.5,516.3c0,2.6-0.4,5-1.3,7.1c-0.9,2.1-2.1,3.9-3.6,5.4c-1.6,1.5-3.5,2.6-5.7,3.4
			c-2.2,0.8-4.7,1.2-7.5,1.2c-4.4,0-8.4-0.7-11.8-2.1c-3.5-1.4-6.3-3-8.5-4.8l6.6-6.6c1.8,1.6,3.7,2.8,5.9,3.7
			c1.3,0.5,2.6,0.9,3.8,1c1.2,0.2,2.1,0.2,2.9,0.2c1.4,0,2.6-0.2,3.8-0.5c1.1-0.3,2.1-0.8,3-1.4c1.8-1.3,2.7-3.1,2.7-5.3
			c0-1.3-0.5-2.5-1.4-3.6c-0.7-0.9-1.7-1.5-2.9-2.1c-1-0.5-2-1-3-1.3c-1.1-0.3-2-0.6-2.9-0.9c-0.3-0.1-0.5-0.2-0.7-0.2
			c-0.2,0-0.4-0.1-0.6-0.2c-0.1,0-0.3-0.1-0.5-0.2c-1.1-0.3-2.7-0.9-4.8-1.7c-2.1-0.8-4.2-1.9-6.3-3.3c-4.8-3.2-7.3-7.2-7.3-12
			c0-3.1,0.5-5.8,1.6-7.9c1.1-2.2,2.5-3.9,4.3-5.3c1.8-1.4,3.7-2.3,5.9-2.9c2.2-0.6,4.3-0.9,6.3-0.9c3.8,0,7.1,0.5,9.7,1.4
			c2.6,0.9,4.7,1.8,6.2,2.7c0.8,0.5,1.5,0.9,2,1.4c0.6,0.5,1.1,0.9,1.5,1.2l-6.8,6.9c-1.4-1.4-2.9-2.5-4.4-3.3
			c-2.2-1.1-4.6-1.6-7-1.6c-1.1,0-2.1,0.1-3.2,0.4c-1.1,0.3-2,0.6-2.8,1c-2.3,1.4-3.5,3.3-3.5,5.7c0,1.4,0.5,2.7,1.4,3.7
			c0.7,0.8,1.6,1.5,2.9,2.2c1,0.5,2.1,1,3.2,1.3c1.1,0.3,2.2,0.6,3.1,0.9l1,0.2c0.3,0.1,0.8,0.3,1.5,0.5c0.7,0.2,1.6,0.5,2.6,1
			c1,0.4,2.1,0.9,3.3,1.5c1.2,0.6,2.4,1.3,3.6,2.1C1900.9,507.7,1903.5,511.7,1903.5,516.3z"/>
		<path fill="#FFFFFF" d="M1967,486h-16.4v46.3h-9.6V486h-16.5v-9.6h16.5h9.6h16.4V486z"/>
		<path fill="#FFFFFF" d="M1996.3,475.2c4,0,7.8,0.8,11.3,2.3c3.5,1.5,6.6,3.6,9.3,6.2c2.6,2.6,4.7,5.7,6.2,9.3
			c1.5,3.5,2.3,7.3,2.3,11.3c0,4-0.8,7.8-2.3,11.3c-1.5,3.5-3.6,6.6-6.2,9.3c-2.6,2.6-5.7,4.7-9.3,6.2c-3.5,1.5-7.3,2.3-11.3,2.3
			c-4,0-7.8-0.8-11.3-2.3c-3.5-1.5-6.6-3.6-9.3-6.2c-2.6-2.6-4.7-5.7-6.2-9.3c-1.5-3.5-2.3-7.3-2.3-11.3c0-4,0.8-7.8,2.3-11.3
			c1.5-3.5,3.6-6.6,6.2-9.3c2.6-2.6,5.7-4.7,9.3-6.2C1988.6,476,1992.3,475.2,1996.3,475.2z M1996.3,484.8c-2.6,0-5.1,0.5-7.4,1.5
			c-2.3,1-4.4,2.4-6.3,4.3c-1.9,1.9-3.3,4-4.3,6.3c-1,2.3-1.5,4.8-1.5,7.4c0,2.6,0.5,5.1,1.5,7.5c1,2.4,2.4,4.5,4.3,6.3
			c1.9,1.9,4,3.3,6.3,4.2c2.3,1,4.8,1.4,7.4,1.4c2.6,0,5.1-0.5,7.5-1.4c2.4-1,4.5-2.4,6.3-4.2c1.9-1.9,3.3-4,4.2-6.3
			c1-2.4,1.4-4.9,1.4-7.5c0-2.6-0.5-5.1-1.4-7.4c-1-2.3-2.4-4.4-4.2-6.3c-1.9-1.9-4-3.3-6.3-4.3
			C2001.4,485.3,1998.9,484.8,1996.3,484.8z"/>
		<path fill="#FFFFFF" d="M2076.4,478c2.4,1.1,4.6,2.5,6.4,4.3c1.8,1.8,3.2,3.9,4.3,6.3c1.1,2.4,1.6,5,1.6,7.8
			c0,2.8-0.5,5.4-1.6,7.8c-1.1,2.4-2.5,4.6-4.3,6.4c-1.8,1.8-3.9,3.2-6.4,4.3c-2.4,1.1-5.1,1.6-7.8,1.6h-8l3.9-9.6h4.1
			c2.9,0,5.4-1,7.4-3.1c2.1-2.1,3.1-4.6,3.1-7.4c0-2.9-1-5.4-3.1-7.3c-2.1-2.1-4.6-3.1-7.4-3.1h-11.3v46.3h-9.6v-55.9h20.8
			C2071.4,476.4,2074,476.9,2076.4,478z"/>
		<path fill="#FFFFFF" d="M2135.3,496.5c0,2-0.3,4-0.8,5.8c-0.6,1.8-1.3,3.5-2.3,5.1c-1,1.5-2.2,2.9-3.6,4.2c-1.4,1.3-3,2.3-4.7,3.1
			l11.4,17.7h-11.4l-10.1-15.7h-6.5l3.9-9.6h4.2c2.9,0,5.4-1,7.4-3.1c1-1,1.7-2.2,2.2-3.4c0.5-1.3,0.8-2.6,0.8-4
			c0-1.4-0.3-2.7-0.8-4c-0.5-1.3-1.3-2.4-2.2-3.4c-2.1-2.1-4.6-3.1-7.4-3.1h-11.3v5.3V507v9.6v15.7h-9.6v-15.7v-25.3v-14.9h20.9
			c2.8,0,5.4,0.5,7.8,1.6c2.4,1.1,4.5,2.5,6.3,4.3c1.8,1.8,3.2,3.9,4.3,6.3C2134.7,491.1,2135.3,493.7,2135.3,496.5z"/>
		<path fill="#FFFFFF" d="M2169.5,475.2c4,0,7.8,0.8,11.3,2.3c3.5,1.5,6.6,3.6,9.3,6.2c2.6,2.6,4.7,5.7,6.2,9.3
			c1.5,3.5,2.3,7.3,2.3,11.3c0,4-0.8,7.8-2.3,11.3c-1.5,3.5-3.6,6.6-6.2,9.3c-2.6,2.6-5.7,4.7-9.3,6.2c-3.5,1.5-7.3,2.3-11.3,2.3
			c-4,0-7.8-0.8-11.3-2.3c-3.5-1.5-6.6-3.6-9.3-6.2c-2.6-2.6-4.7-5.7-6.2-9.3c-1.5-3.5-2.3-7.3-2.3-11.3c0-4,0.8-7.8,2.3-11.3
			c1.5-3.5,3.6-6.6,6.2-9.3c2.6-2.6,5.7-4.7,9.3-6.2C2161.8,476,2165.5,475.2,2169.5,475.2z M2169.5,484.8c-2.6,0-5.1,0.5-7.4,1.5
			c-2.3,1-4.4,2.4-6.3,4.3c-1.9,1.9-3.3,4-4.3,6.3c-1,2.3-1.5,4.8-1.5,7.4c0,2.6,0.5,5.1,1.5,7.5c1,2.4,2.4,4.5,4.3,6.3
			c1.9,1.9,4,3.3,6.3,4.2c2.3,1,4.8,1.4,7.4,1.4c2.6,0,5.1-0.5,7.5-1.4c2.4-1,4.5-2.4,6.3-4.2c1.9-1.9,3.3-4,4.2-6.3
			c1-2.4,1.4-4.9,1.4-7.5c0-2.6-0.5-5.1-1.4-7.4c-1-2.3-2.4-4.4-4.2-6.3c-1.9-1.9-4-3.3-6.3-4.3
			C2174.6,485.3,2172.1,484.8,2169.5,484.8z"/>
		<path fill="#FFFFFF" d="M2213.8,486v13.6h20.8l2.4,9.6h-23.2v23.2h-9.6v-55.9h37.6v9.6H2213.8z"/>
		<path fill="#FFFFFF" d="M2256.2,532.3h-9.6v-55.8h9.6V532.3z"/>
		<path fill="#FFFFFF" d="M2304.2,486h-16.4v46.3h-9.6V486h-16.4v-9.6h16.4h9.6h16.4V486z"/>
	</g>
	<rect x="662.9" y="503.2" display="inline" fill="#FFFFFF" width="951.4" height="2.2"/>
</g>
<g display="none">
	<path display="inline" fill="#FFFFFF" d="M953,1138.6"/>
	<g display="inline">
		<linearGradient id="SVGID_1_" gradientUnits="userSpaceOnUse" x1="268.8842" y1="1346.4386" x2="268.8842" y2="1218.9585">
			<stop  offset="0" style="stop-color:#FF980B"/>
			<stop  offset="0.2378" style="stop-color:#FF950F"/>
			<stop  offset="0.4841" style="stop-color:#FF8B1C"/>
			<stop  offset="0.7343" style="stop-color:#FE7B30"/>
			<stop  offset="0.9859" style="stop-color:#FD654D"/>
			<stop  offset="1" style="stop-color:#FD644F"/>
		</linearGradient>
		<path fill="#FF980B" stroke="url(#SVGID_1_)" stroke-width="3" stroke-miterlimit="10" d="M324,1344.9h-67.3
			c0,0-26.8,1.3-39.7-25.1c0,0-10.9-20.6,2.4-42.1l32.2-55.7L324,1344.9z"/>
		<linearGradient id="SVGID_2_" gradientUnits="userSpaceOnUse" x1="466.284" y1="823.2241" x2="466.284" y2="1344.929">
			<stop  offset="0" style="stop-color:#FF980B"/>
			<stop  offset="0.2378" style="stop-color:#FF950F"/>
			<stop  offset="0.4841" style="stop-color:#FF8B1C"/>
			<stop  offset="0.7343" style="stop-color:#FE7B30"/>
			<stop  offset="0.9859" style="stop-color:#FD654D"/>
			<stop  offset="1" style="stop-color:#FD644F"/>
		</linearGradient>
		<linearGradient id="SVGID_3_" gradientUnits="userSpaceOnUse" x1="466.724" y1="1346.429" x2="466.724" y2="821.7241">
			<stop  offset="0" style="stop-color:#FF980B"/>
			<stop  offset="0.2378" style="stop-color:#FF950F"/>
			<stop  offset="0.4841" style="stop-color:#FF8B1C"/>
			<stop  offset="0.7343" style="stop-color:#FE7B30"/>
			<stop  offset="0.9859" style="stop-color:#FD654D"/>
			<stop  offset="1" style="stop-color:#FD644F"/>
		</linearGradient>
		<path fill="url(#SVGID_2_)" stroke="url(#SVGID_3_)" stroke-width="3" stroke-miterlimit="10" d="M665.1,1344.9H356.4l-88.9-150.8
			l63.5-110l89.7,151.5l50.6-0.1l-115.1-195.1L469.7,844c0,0,11.6-20.8,37.3-20.8c0,0,25.4-1.7,39.4,24.2l91.5,158.5L568.3,1116
			L507,1015.1l-17.4,30.3L665.1,1344.9z"/>
		<linearGradient id="SVGID_4_" gradientUnits="userSpaceOnUse" x1="692.7599" y1="1346.4293" x2="692.7599" y2="1031.5531">
			<stop  offset="0" style="stop-color:#FF980B"/>
			<stop  offset="0.2378" style="stop-color:#FF950F"/>
			<stop  offset="0.4841" style="stop-color:#FF8B1C"/>
			<stop  offset="0.7343" style="stop-color:#FE7B30"/>
			<stop  offset="0.9859" style="stop-color:#FD654D"/>
			<stop  offset="1" style="stop-color:#FD644F"/>
		</linearGradient>
		<path fill="#FF980B" stroke="url(#SVGID_4_)" stroke-width="3" stroke-miterlimit="10" d="M654.4,1034.5l-70.2,114l113.1,196.5
			l61.4,0c0,0,24,0.7,37.2-22.6c0,0,14.2-20-2.2-46.6L654.4,1034.5z"/>
	</g>
	<g display="inline">
		<path fill="#011D45" d="M1026.3,823.2c8.3,0,15.5,3.5,20.2,13.4l137.4,258.4h-75.6l-17.4-35.1H983.5l30.8-62.8h45.4l-33.3-67.1
			L944.5,1095h-75.8l137.4-258.4C1010.8,826.7,1018,823.2,1026.3,823.2z"/>
		<path fill="#011D45" d="M1425.5,885.2h-111.6c-16.7,0-41.7-2.7-41.7,21.3s25,21.3,41.7,21.3h71.9c47.9,0,83.3,26.9,83.3,85.1
			c0,56-38.2,82-83.3,82h-180.1l31-62.2H1361c16.7,0,41.7,2.7,41.7-21.3c0-24-25-21.3-41.7-21.3H1289c-47.9,0-83.3-26.9-83.3-85.1
			c0-56,38.4-81.8,83.3-81.8h167.7L1425.5,885.2z"/>
		<path fill="#011D45" d="M1695.3,1002.7c-23.5,0-78.5,0-102.1,0l31.2-62h53.5c16.3,0,29.8-5.2,29.8-27.7
			c0-21.5-12.4-27.7-29.8-27.7h-96.3v210.9h-66.5V823.2h180.2c50.8,0,76.4,31.6,78.7,71.1c0.6,10.1,0.2,20.9,0.2,31
			C1774.2,967.8,1748.8,1002.7,1695.3,1002.7z"/>
		<path fill="#011D45" d="M1818.6,1095V823.2h66.7V1095H1818.6z"/>
		<path fill="#011D45" d="M2203.4,1095h-76.9l-46.3-92.3h-57.8l31-62h53.5c16.3,0,29.8-5.2,29.8-27.7c0-21.5-12.4-27.7-29.8-27.7
			h-96.3v210.9H1944V823.2h180.4c50.6,0,76.2,31.6,78.5,71.1c0.6,10.1,0.2,20.9,0.2,31c0,33.3-15.7,62-48.5,72.9L2203.4,1095z"/>
		<path fill="#011D45" d="M2510,823.2l-31.6,62.8h-158.9v146.9h181.8v62H2253V823.2H2510z M2331.3,989.7l31.6-62.8h115.5v62.8
			H2331.3z"/>
	</g>
	<g display="inline">
		<path fill="#FD644F" d="M933.8,1199.1c-20.3,0-18.9,0-39.1,0c-17,0-29.5-9.5-29.5-30.1c0-19.8,13.5-28.9,29.5-28.9h64.2l-6.7,13.4
			c-2.8-0.2-48.7,0-51.1,0c-13.3,0-21.1,3.5-21.1,15.3c0,9,4,16.8,16.7,17c20.3,0,20.1,0,40.3,0c17,0,29.5,9.5,29.5,30.1
			c0,19.8-13.5,28.9-29.5,28.9h-70.2l6.7-13.4c2.8,0.2,52.2,0,54.7,0c10.6,0,23.8,1.2,23.8-16.1
			C952.1,1201.2,941.2,1199.3,933.8,1199.1z"/>
		<path fill="#FD644F" d="M1129.8,1244.9c-28,0-41.3-18.3-41.3-40.6v-23.6c0-22.3,13.4-40.6,41.3-40.6h26c28,0,41.3,18.2,41.3,40.6
			v23.6c0,22.3-13.3,40.6-41.3,40.6H1129.8z M1139.3,1153.3c-16.4,0-36.4,2.6-36.4,29v20.3c0,26.4,20,29,36.4,29h7
			c16.4,0,36.5-2.6,36.5-29v-20.3c0-26.4-20-29-36.5-29H1139.3z"/>
		<path fill="#FD644F" d="M1328.5,1244.9v-104.8c30.4,0,61.4,0,91.8,0l-6.7,13.3h-70.8v91.5H1328.5z M1408.4,1199.1h-61l6.7-13.3
			h54.3V1199.1z"/>
		<path fill="#FD644F" d="M1533.9,1140.1h95.5l-6.7,13.3h-33.8v91.5h-14.4v-91.5c-11.8,0-22.4,0-34.2,0L1533.9,1140.1z"/>
		<path fill="#FD644F" d="M1809.1,1199.1c-20.3,0-18.9,0-39.1,0c-17,0-29.5-9.5-29.5-30.1c0-19.8,13.5-28.9,29.5-28.9h64.2
			l-6.7,13.4c-2.8-0.2-48.7,0-51.1,0c-13.3,0-21.1,3.5-21.1,15.3c0,9,4,16.8,16.7,17c20.3,0,20.1,0,40.3,0c17,0,29.5,9.5,29.5,30.1
			c0,19.8-13.5,28.9-29.5,28.9h-70.2l6.7-13.4c2.8,0.2,52.2,0,54.7,0c10.6,0,23.8,1.2,23.8-16.1
			C1827.4,1201.2,1816.5,1199.3,1809.1,1199.1z"/>
		<path fill="#FD644F" d="M1970.3,1244.9v-104.8c30.4,0,61.4,0,91.8,0l-6.7,13.3h-70.8v78.2h74.5v13.3H1970.3z M2050.2,1199.1h-61
			l6.7-13.3h54.3V1199.1z"/>
		<path fill="#FD644F" d="M2286.7,1244.9h-16.6l-17.9-35.6H2212l6.7-13.5h30.9c12.4,0,22.7-3.9,22.7-21.1c0-16.4-9.4-21.2-22.7-21.2
			h-45.8v91.3h-14.4v-104.8c22.8,0,44.3,0,67,0c19.6,0,29.5,12.2,30.4,27.4c0.2,3.9,0.1,8.1,0.1,12c0,12.9-6.1,23.9-18.7,28.1
			L2286.7,1244.9z"/>
		<path fill="#FD644F" d="M2447,1239.7l-47.5-99.6h16.3l38.9,84.4l38.9-84.4h16.3l-47.4,99.6c-1.6,3.1-4.6,5.2-7.9,5.2
			S2448.6,1242.9,2447,1239.7z"/>
	</g>
	<g display="inline">
		<path fill="#B2BBC7" d="M1898.5,1343.9h-9.6v-55.8h9.6V1343.9z"/>
		<path fill="#B2BBC7" d="M1939.3,1290.2c3.4,1.5,6.4,3.5,8.9,6c2.5,2.5,4.5,5.5,6,8.9c1.5,3.4,2.2,7,2.2,10.9
			c0,3.8-0.7,7.5-2.2,10.9c-1.5,3.4-3.5,6.4-6,8.9c-2.5,2.5-5.5,4.5-8.9,6c-3.4,1.5-7,2.2-10.9,2.2h-9.9l3.9-9.6h6
			c2.4,0,4.8-0.5,7-1.4c2.2-0.9,4.2-2.2,6-4c1.7-1.8,3-3.7,4-5.9c0.9-2.2,1.4-4.6,1.4-7.1c0-2.4-0.5-4.8-1.4-7c-0.9-2.2-2.2-4.2-4-6
			c-1.8-1.7-3.8-3-6-4c-2.2-0.9-4.6-1.4-7-1.4h-13.6v23.2v13.6v9.6h-9.6V1288h23.2C1932.3,1288,1935.9,1288.7,1939.3,1290.2z"/>
		<path fill="#B2BBC7" d="M1971.6,1297.6v13.6h20.8l2.4,9.6h-23.2v13.6h28v9.6H1962V1288h37.6v9.6H1971.6z"/>
		<path fill="#B2BBC7" d="M2064.6,1343.9h-10.5l-4.3-9.6l-4.3-9.6l-11.3-25.1l-11.3,25.1h14.5l4.3,9.6h-23.2l-4.3,9.6h-10.5
			l25.2-55.9h10.5L2064.6,1343.9z"/>
		<path fill="#B2BBC7" d="M2105.8,1327.9c0,2.6-0.4,5-1.3,7.1c-0.9,2.1-2.1,3.9-3.6,5.4c-1.6,1.5-3.5,2.6-5.7,3.4
			c-2.2,0.8-4.7,1.2-7.5,1.2c-4.4,0-8.4-0.7-11.8-2.1c-3.5-1.4-6.3-3-8.5-4.8l6.6-6.6c1.8,1.6,3.7,2.8,5.9,3.7
			c1.3,0.5,2.6,0.9,3.8,1c1.2,0.2,2.1,0.2,2.9,0.2c1.4,0,2.6-0.2,3.8-0.5c1.1-0.3,2.1-0.8,3-1.4c1.8-1.3,2.7-3.1,2.7-5.3
			c0-1.3-0.5-2.5-1.4-3.6c-0.7-0.9-1.7-1.5-2.9-2.1c-1-0.5-2-1-3-1.3c-1.1-0.3-2-0.6-2.9-0.9c-0.3-0.1-0.5-0.2-0.7-0.2
			c-0.2,0-0.4-0.1-0.6-0.2c-0.1,0-0.3-0.1-0.5-0.2c-1.1-0.3-2.7-0.9-4.8-1.7c-2.1-0.8-4.2-1.9-6.3-3.3c-4.8-3.2-7.3-7.2-7.3-12
			c0-3.1,0.5-5.8,1.6-7.9c1.1-2.2,2.5-3.9,4.3-5.3c1.8-1.4,3.7-2.3,5.9-2.9c2.2-0.6,4.3-0.9,6.3-0.9c3.8,0,7.1,0.5,9.7,1.4
			c2.6,0.9,4.7,1.8,6.2,2.7c0.8,0.5,1.5,0.9,2,1.4c0.6,0.5,1.1,0.9,1.5,1.2l-6.8,6.9c-1.4-1.4-2.9-2.5-4.4-3.3
			c-2.2-1.1-4.6-1.6-7-1.6c-1.1,0-2.1,0.1-3.2,0.4c-1.1,0.3-2,0.6-2.8,1c-2.3,1.4-3.5,3.3-3.5,5.7c0,1.4,0.5,2.7,1.4,3.7
			c0.7,0.8,1.6,1.5,2.9,2.2c1,0.5,2.1,1,3.2,1.3c1.1,0.3,2.2,0.6,3.1,0.9l1,0.2c0.3,0.1,0.8,0.3,1.5,0.5c0.7,0.2,1.6,0.5,2.6,1
			c1,0.4,2.1,0.9,3.3,1.5c1.2,0.6,2.4,1.3,3.6,2.1C2103.2,1319.3,2105.8,1323.3,2105.8,1327.9z"/>
		<path fill="#B2BBC7" d="M2169.4,1297.6H2153v46.3h-9.6v-46.3H2127v-9.6h16.5h9.6h16.4V1297.6z"/>
		<path fill="#B2BBC7" d="M2198.7,1286.8c4,0,7.8,0.8,11.3,2.3c3.5,1.5,6.6,3.6,9.3,6.2c2.6,2.6,4.7,5.7,6.2,9.3
			c1.5,3.5,2.3,7.3,2.3,11.3c0,4-0.8,7.8-2.3,11.3c-1.5,3.5-3.6,6.6-6.2,9.3c-2.6,2.6-5.7,4.7-9.3,6.2c-3.5,1.5-7.3,2.3-11.3,2.3
			c-4,0-7.8-0.8-11.3-2.3c-3.5-1.5-6.6-3.6-9.3-6.2c-2.6-2.6-4.7-5.7-6.2-9.3c-1.5-3.5-2.3-7.3-2.3-11.3c0-4,0.8-7.8,2.3-11.3
			c1.5-3.5,3.6-6.6,6.2-9.3c2.6-2.6,5.7-4.7,9.3-6.2C2190.9,1287.6,2194.7,1286.8,2198.7,1286.8z M2198.7,1296.4
			c-2.6,0-5.1,0.5-7.4,1.5c-2.3,1-4.4,2.4-6.3,4.3c-1.9,1.9-3.3,4-4.3,6.3c-1,2.3-1.5,4.8-1.5,7.4c0,2.6,0.5,5.1,1.5,7.5
			c1,2.4,2.4,4.5,4.3,6.3c1.9,1.9,4,3.3,6.3,4.2c2.3,1,4.8,1.4,7.4,1.4c2.6,0,5.1-0.5,7.5-1.4c2.4-1,4.5-2.4,6.3-4.2
			c1.9-1.9,3.3-4,4.2-6.3c1-2.4,1.4-4.9,1.4-7.5c0-2.6-0.5-5.1-1.4-7.4c-1-2.3-2.4-4.4-4.2-6.3c-1.9-1.9-4-3.3-6.3-4.3
			C2203.8,1296.9,2201.3,1296.4,2198.7,1296.4z"/>
		<path fill="#B2BBC7" d="M2278.8,1289.6c2.4,1.1,4.6,2.5,6.4,4.3c1.8,1.8,3.2,3.9,4.3,6.3c1.1,2.4,1.6,5,1.6,7.8
			c0,2.8-0.5,5.4-1.6,7.8c-1.1,2.4-2.5,4.6-4.3,6.4c-1.8,1.8-3.9,3.2-6.4,4.3c-2.5,1.1-5.1,1.6-7.8,1.6h-8l3.9-9.6h4.1
			c2.9,0,5.4-1,7.4-3.1c2.1-2.1,3.1-4.6,3.1-7.4c0-2.9-1-5.4-3.1-7.3c-2.1-2.1-4.6-3.1-7.4-3.1h-11.3v46.3h-9.6V1288h20.8
			C2273.7,1288,2276.3,1288.5,2278.8,1289.6z"/>
		<path fill="#B2BBC7" d="M2337.6,1308c0,2-0.3,4-0.8,5.8c-0.6,1.8-1.3,3.5-2.3,5.1c-1,1.5-2.2,2.9-3.6,4.2c-1.4,1.3-3,2.3-4.7,3.1
			l11.4,17.7h-11.4l-10.1-15.7h-6.5l3.9-9.6h4.2c2.9,0,5.4-1,7.4-3.1c1-1,1.7-2.2,2.2-3.4c0.5-1.3,0.8-2.6,0.8-4
			c0-1.4-0.3-2.7-0.8-4c-0.5-1.3-1.3-2.4-2.2-3.4c-2.1-2.1-4.6-3.1-7.4-3.1h-11.3v5.3v15.7v9.6v15.7h-9.6v-15.7v-25.3V1288h20.9
			c2.8,0,5.4,0.5,7.8,1.6c2.4,1.1,4.5,2.5,6.3,4.3c1.8,1.8,3.2,3.9,4.3,6.3C2337.1,1302.7,2337.6,1305.3,2337.6,1308z"/>
		<path fill="#B2BBC7" d="M2371.9,1286.8c4,0,7.8,0.8,11.3,2.3c3.5,1.5,6.6,3.6,9.3,6.2c2.6,2.6,4.7,5.7,6.2,9.3
			c1.5,3.5,2.3,7.3,2.3,11.3c0,4-0.8,7.8-2.3,11.3c-1.5,3.5-3.6,6.6-6.2,9.3c-2.6,2.6-5.7,4.7-9.3,6.2c-3.5,1.5-7.3,2.3-11.3,2.3
			c-4,0-7.8-0.8-11.3-2.3c-3.5-1.5-6.6-3.6-9.3-6.2c-2.6-2.6-4.7-5.7-6.2-9.3c-1.5-3.5-2.3-7.3-2.3-11.3c0-4,0.8-7.8,2.3-11.3
			c1.5-3.5,3.6-6.6,6.2-9.3c2.6-2.6,5.7-4.7,9.3-6.2C2364.1,1287.6,2367.9,1286.8,2371.9,1286.8z M2371.9,1296.4
			c-2.6,0-5.1,0.5-7.4,1.5c-2.3,1-4.4,2.4-6.3,4.3c-1.9,1.9-3.3,4-4.3,6.3c-1,2.3-1.5,4.8-1.5,7.4c0,2.6,0.5,5.1,1.5,7.5
			c1,2.4,2.4,4.5,4.3,6.3c1.9,1.9,4,3.3,6.3,4.2c2.3,1,4.8,1.4,7.4,1.4c2.6,0,5.1-0.5,7.5-1.4c2.4-1,4.5-2.4,6.3-4.2
			c1.9-1.9,3.3-4,4.2-6.3c1-2.4,1.4-4.9,1.4-7.5c0-2.6-0.5-5.1-1.4-7.4c-1-2.3-2.4-4.4-4.2-6.3c-1.9-1.9-4-3.3-6.3-4.3
			C2377,1296.9,2374.5,1296.4,2371.9,1296.4z"/>
		<path fill="#B2BBC7" d="M2416.1,1297.6v13.6h20.8l2.4,9.6h-23.2v23.2h-9.6V1288h37.6v9.6H2416.1z"/>
		<path fill="#B2BBC7" d="M2458.5,1343.9h-9.6v-55.8h9.6V1343.9z"/>
		<path fill="#B2BBC7" d="M2506.5,1297.6h-16.4v46.3h-9.6v-46.3h-16.5v-9.6h16.5h9.6h16.4V1297.6z"/>
	</g>
	<rect x="865.3" y="1314.8" display="inline" fill="#B2BBC7" width="951.4" height="2.2"/>
</g>
<g>
	<path fill="#FFFFFF" d="M750.6,327.1"/>
	<g>
		<linearGradient id="SVGID_5_" gradientUnits="userSpaceOnUse" x1="125.1246" y1="470.8712" x2="8.3314" y2="470.8712">
			<stop  offset="0" style="stop-color:#FEBE10"/>
			<stop  offset="5.943779e-002" style="stop-color:#FDBA12"/>
			<stop  offset="0.121" style="stop-color:#FCAD1A"/>
			<stop  offset="0.1836" style="stop-color:#F99925"/>
			<stop  offset="0.2465" style="stop-color:#F47C36"/>
			<stop  offset="0.25" style="stop-color:#F47A37"/>
			<stop  offset="0.3286" style="stop-color:#F37339"/>
			<stop  offset="0.4388" style="stop-color:#F1613F"/>
			<stop  offset="0.5" style="stop-color:#F05443"/>
			<stop  offset="0.5741" style="stop-color:#EB4749"/>
			<stop  offset="0.7105" style="stop-color:#DD255A"/>
			<stop  offset="0.75" style="stop-color:#D91A5F"/>
			<stop  offset="1" style="stop-color:#B41F5E"/>
		</linearGradient>
		<path fill="#FEBE10" stroke="url(#SVGID_5_)" stroke-width="4" stroke-miterlimit="10" d="M121.6,533.3H54.3
			c0,0-26.8,1.3-39.7-25.1c0,0-10.9-20.6,2.4-42.1l32.2-55.7L121.6,533.3z"/>
		<linearGradient id="SVGID_6_" gradientUnits="userSpaceOnUse" x1="55.8953" y1="329.95" x2="447.3078" y2="260.9334">
			<stop  offset="0" style="stop-color:#FEBE10"/>
			<stop  offset="7.132535e-002" style="stop-color:#FDBA12"/>
			<stop  offset="0.1452" style="stop-color:#FCAD1A"/>
			<stop  offset="0.2203" style="stop-color:#F99925"/>
			<stop  offset="0.2958" style="stop-color:#F47C36"/>
			<stop  offset="0.3" style="stop-color:#F47A37"/>
			<stop  offset="0.3943" style="stop-color:#F37339"/>
			<stop  offset="0.5265" style="stop-color:#F1613F"/>
			<stop  offset="0.6" style="stop-color:#F05443"/>
			<stop  offset="0.6889" style="stop-color:#EB4749"/>
			<stop  offset="0.8526" style="stop-color:#DD255A"/>
			<stop  offset="0.9" style="stop-color:#D91A5F"/>
			<stop  offset="1" style="stop-color:#B41F5E"/>
		</linearGradient>
		<linearGradient id="SVGID_7_" gradientUnits="userSpaceOnUse" x1="140.1492" y1="97.5297" x2="411.2433" y2="567.0784">
			<stop  offset="0" style="stop-color:#FEBE10"/>
			<stop  offset="5.943779e-002" style="stop-color:#FDBA12"/>
			<stop  offset="0.121" style="stop-color:#FCAD1A"/>
			<stop  offset="0.1836" style="stop-color:#F99925"/>
			<stop  offset="0.2465" style="stop-color:#F47C36"/>
			<stop  offset="0.25" style="stop-color:#F47A37"/>
			<stop  offset="0.3286" style="stop-color:#F37339"/>
			<stop  offset="0.4388" style="stop-color:#F1613F"/>
			<stop  offset="0.5" style="stop-color:#F05443"/>
			<stop  offset="0.5741" style="stop-color:#EB4749"/>
			<stop  offset="0.7105" style="stop-color:#DD255A"/>
			<stop  offset="0.75" style="stop-color:#D91A5F"/>
			<stop  offset="1" style="stop-color:#B41F5E"/>
		</linearGradient>
		<path fill="url(#SVGID_6_)" stroke="url(#SVGID_7_)" stroke-width="4" stroke-miterlimit="10" d="M462.7,533.3H154.1L65.2,382.5
			l63.5-110L218.4,424l50.6-0.1L153.9,228.8L267.3,32.4c0,0,11.6-20.8,37.3-20.8c0,0,25.4-1.7,39.4,24.2l91.5,158.5l-69.7,110.1
			l-61.2-100.9l-17.4,30.3L462.7,533.3z"/>
		<linearGradient id="SVGID_8_" gradientUnits="userSpaceOnUse" x1="490.3752" y1="535.3481" x2="490.3752" y2="218.9958">
			<stop  offset="0" style="stop-color:#FEBE10"/>
			<stop  offset="5.943779e-002" style="stop-color:#FDBA12"/>
			<stop  offset="0.121" style="stop-color:#FCAD1A"/>
			<stop  offset="0.1836" style="stop-color:#F99925"/>
			<stop  offset="0.2465" style="stop-color:#F47C36"/>
			<stop  offset="0.25" style="stop-color:#F47A37"/>
			<stop  offset="0.3286" style="stop-color:#F37339"/>
			<stop  offset="0.4388" style="stop-color:#F1613F"/>
			<stop  offset="0.5" style="stop-color:#F05443"/>
			<stop  offset="0.5741" style="stop-color:#EB4749"/>
			<stop  offset="0.7105" style="stop-color:#DD255A"/>
			<stop  offset="0.75" style="stop-color:#D91A5F"/>
			<stop  offset="1" style="stop-color:#B41F5E"/>
		</linearGradient>
		<path fill="#B41F5E" stroke="url(#SVGID_8_)" stroke-width="4" stroke-miterlimit="10" d="M452,222.9l-70.2,114l113.1,196.5
			l61.4,0c0,0,24,0.7,37.2-22.6c0,0,14.2-20-2.2-46.6L452,222.9z"/>
	</g>
	<g>
		<path fill="#011D45" d="M824,11.6c8.3,0,15.5,3.5,20.2,13.4l137.4,258.4H906l-17.4-35.1H781.2l30.8-62.8h45.4L824,118.4
			l-81.8,164.9h-75.8L803.8,25C808.5,15.1,815.7,11.6,824,11.6z"/>
		<path fill="#011D45" d="M1223.2,73.7h-111.6c-16.7,0-41.7-2.7-41.7,21.3s25,21.3,41.7,21.3h71.9c47.9,0,83.3,26.9,83.3,85.1
			c0,56-38.2,82-83.3,82h-180.1l31-62.2h124.2c16.7,0,41.7,2.7,41.7-21.3c0-24-25-21.3-41.7-21.3h-71.9c-47.9,0-83.3-26.9-83.3-85.1
			c0-56,38.4-81.8,83.3-81.8h167.7L1223.2,73.7z"/>
		<path fill="#011D45" d="M1493,191.1c-23.5,0-78.5,0-102.1,0l31.2-62h53.5c16.3,0,29.8-5.2,29.8-27.7c0-21.5-12.4-27.7-29.8-27.7
			h-96.3v210.9h-66.5V11.6H1493c50.8,0,76.4,31.6,78.7,71.1c0.6,10.1,0.2,20.9,0.2,31C1571.9,156.2,1546.5,191.1,1493,191.1z"/>
		<path fill="#011D45" d="M1616.3,283.4V11.6h66.7v271.7H1616.3z"/>
		<path fill="#011D45" d="M2001,283.4h-76.9l-46.3-92.3H1820l31-62h53.5c16.3,0,29.8-5.2,29.8-27.7c0-21.5-12.4-27.7-29.8-27.7
			h-96.3v210.9h-66.5V11.6h180.4c50.6,0,76.2,31.6,78.5,71.1c0.6,10.1,0.2,20.9,0.2,31c0,33.3-15.7,62-48.5,72.9L2001,283.4z"/>
		<path fill="#011D45" d="M2307.7,11.6l-31.6,62.8h-158.9v146.9H2299v62h-248.3V11.6H2307.7z M2129,178.1l31.6-62.8h115.5v62.8H2129
			z"/>
	</g>
	<g>
		<g>
			<path fill="#F05443" d="M662.8,433.3l7.8-15.4l0.7,0c0.8,0,5.8,0.1,14.8,0.1c11.8,0,27.4,0,35.2-0.1c2.6,0,4.2,0,4.7,0
				c0.6,0,3.9,0,3.9,0c4.4,0,9.5-0.2,13.1-2.2c3.9-2.2,5.8-6.4,5.8-12.9c0-10.1-5.5-15-17.3-15.2h-39.1c-19.1,0-30.5-11.6-30.5-31.1
				c0-22.1,15.7-29.9,30.5-29.9h65.8l-7.7,15.4l-0.7,0c-0.8,0-5.5-0.1-13.9-0.1c-10.9,0-25.4,0-32.7,0.1c-2.4,0-4.1,0-4.5,0
				c-14.3,0-20.1,4.2-20.1,14.3c0,10.5,5.3,15.9,15.7,16h40.3c19.1,0,30.5,11.6,30.5,31.1c0,22.1-15.8,29.9-30.5,29.9H662.8z"/>
			<path fill="#F05443" d="M756.6,327.5l-6.7,13.4c-0.9-0.1-6.7-0.1-14-0.1c-14.6,0-35.5,0.1-37.2,0.1c-13.3,0-21.1,3.5-21.1,15.3
				c0,9,4,16.8,16.7,17c20.3,0,20.1,0,40.3,0c17,0,29.5,9.5,29.5,30.1c0,19.8-13.5,28.9-29.5,28.9h-70.2l6.7-13.4
				c0.9,0.1,7.1,0.1,14.9,0.1c15.6,0,38.1-0.1,39.8-0.1c1.3,0,2.6,0,3.9,0c9.7,0,19.9-0.9,19.9-16.2c0-14.2-10.8-16.1-18.2-16.2
				c-20.3,0-18.9,0-39.1,0c-17,0-29.5-9.5-29.5-30.1c0-19.8,13.5-28.9,29.5-28.9H756.6 M759.8,325.5h-3.2h-64.2
				c-8.8,0-16.5,2.6-22,7.5c-6.2,5.5-9.4,13.5-9.4,23.4c0,20.1,11.8,32.1,31.5,32.1h39.1c11.2,0.2,16.2,4.6,16.2,14.2
				c0,13.1-7.8,14.2-17.9,14.2c-0.7,0-1.3,0-2,0c-0.7,0-1.3,0-1.9,0c-0.4,0-2.1,0-4.7,0c-7.6,0-23.4,0.1-35.2,0.1
				c-11.2,0-14.2,0-14.8-0.1l-1.3-0.1l-0.6,1.2l-6.7,13.4l-1.5,2.9h3.2h70.2c8.9,0,16.5-2.6,22.1-7.5c6.2-5.5,9.4-13.5,9.4-23.4
				c0-20.1-11.8-32.1-31.5-32.1h-40.3c-9.9-0.2-14.7-5.1-14.7-15c0-9.6,5.3-13.3,19.1-13.3c0.4,0,2,0,4.5,0c7.1,0,21.7-0.1,32.7-0.1
				c10.5,0,13.3,0,13.9,0.1l1.3,0.1l0.6-1.2l6.7-13.4L759.8,325.5L759.8,325.5z"/>
		</g>
		<g>
			<path fill="#F05443" d="M927.5,433.3c-13.4,0-24.4-4.2-31.9-12.3c-6.8-7.4-10.5-17.5-10.5-29.3v-23.6c0-11.8,3.6-22,10.5-29.3
				c7.5-8,18.5-12.3,31.9-12.3h26c31.2,0,42.3,21.5,42.3,41.6v23.6c0,20.1-11.1,41.6-42.3,41.6H927.5z M937,341.7
				c-17.5,0-35.4,3.3-35.4,28v20.3c0,24.7,17.9,28,35.4,28h7c17.5,0,35.5-3.3,35.5-28v-20.3c0-24.7-17.9-28-35.5-28H937z"/>
			<path fill="#F05443" d="M953.5,327.5c28,0,41.3,18.2,41.3,40.6v23.6c0,22.3-13.3,40.6-41.3,40.6h-26c-28,0-41.3-18.3-41.3-40.6
				v-23.6c0-22.3,13.4-40.6,41.3-40.6H953.5 M937,419.1h7c16.4,0,36.5-2.6,36.5-29v-20.3c0-26.4-20-29-36.5-29h-7
				c-16.4,0-36.4,2.6-36.4,29v20.3C900.6,416.5,920.6,419.1,937,419.1 M953.5,325.5h-26c-13.7,0-25,4.4-32.6,12.6
				c-7,7.5-10.7,17.9-10.7,30v23.6c0,12.1,3.7,22.5,10.7,30c7.6,8.2,18.9,12.6,32.6,12.6h26c13.7,0,25-4.3,32.6-12.6
				c7-7.5,10.7-17.9,10.7-30v-23.6c0-12.1-3.7-22.5-10.7-30C978.5,329.8,967.3,325.5,953.5,325.5L953.5,325.5z M937,417.1
				c-7.3,0-16.5-0.5-23.4-4.4c-7.4-4.2-11-11.6-11-22.7v-20.3c0-11.1,3.6-18.5,11-22.7c6.9-3.9,16.1-4.4,23.4-4.4h7
				c17.9,0,34.5,3.3,34.5,27v20.3c0,23.7-16.6,27-34.5,27H937L937,417.1z"/>
		</g>
		<g>
			<path fill="#F05443" d="M1125.2,433.3V326.5h94.4l-7.7,15.3h-70.4v91.5H1125.2z M1143.5,387.6l7.7-15.3h56v15.3H1143.5z"/>
			<path fill="#F05443" d="M1218,327.5l-6.7,13.3h-70.8v91.5h-14.4V327.5C1156.6,327.5,1187.5,327.5,1218,327.5 M1206.1,373.3v13.3
				h-61l6.7-13.3H1206.1 M1221.2,325.5h-3.2h-91.8h-2v2v104.8v2h2h14.4h2v-2v-43.7h2.6h61h2v-2v-13.3v-2h-2h-54.3h-1.2l-0.6,1.1
				l-6.7,13.3l-0.8,1.5v-44.4h68.8h1.2l0.6-1.1l6.7-13.3L1221.2,325.5L1221.2,325.5z"/>
		</g>
		<g>
			<polygon fill="#F05443" points="1371.1,433.3 1371.1,341.8 1337.3,341.8 1330,326.5 1428.7,326.5 1421,341.8 1387.5,341.8 
				1387.5,433.3 			"/>
			<path fill="#F05443" d="M1427.1,327.5l-6.7,13.3h-33.8v91.5h-14.4v-91.5c-11.8,0-22.4,0-34.2,0l-6.3-13.3H1427.1 M1430.3,325.5
				h-3.3h-95.5h-3.2l1.3,2.9l6.3,13.3l0.5,1.1h1.3h32.2v89.5v2h2h14.4h2v-2v-89.5h31.8h1.2l0.6-1.1l6.7-13.3L1430.3,325.5
				L1430.3,325.5z"/>
		</g>
		<g>
			<path fill="#F05443" d="M1538.1,433.3l7.7-15.4l0.7,0c0.8,0,5.8,0.1,14.8,0.1c11.8,0,27.4,0,35.2-0.1c2.6,0,4.2,0,4.7,0
				c0.6,0,3.9,0,3.9,0c4.4,0,9.5-0.2,13.1-2.2c3.9-2.2,5.8-6.4,5.8-12.9c0-10.1-5.5-15-17.3-15.2h-39.1c-19.1,0-30.5-11.6-30.5-31.1
				c0-22.1,15.7-29.9,30.5-29.9h65.8l-7.7,15.4l-0.7,0c-0.8,0-5.5-0.1-13.9-0.1c-10.9,0-25.4,0-32.7,0.1c-2.4,0-4.1,0-4.5,0
				c-14.3,0-20.1,4.2-20.1,14.3c0,10.5,5.3,15.9,15.7,16h40.3c19.1,0,30.5,11.6,30.5,31.1c0,22.1-15.8,29.9-30.5,29.9H1538.1z"/>
			<path fill="#F05443" d="M1631.9,327.5l-6.7,13.4c-0.9-0.1-6.7-0.1-14-0.1c-14.6,0-35.5,0.1-37.2,0.1c-13.3,0-21.1,3.5-21.1,15.3
				c0,9,4,16.8,16.7,17c20.3,0,20.1,0,40.3,0c17,0,29.5,9.5,29.5,30.1c0,19.8-13.5,28.9-29.5,28.9h-70.2l6.7-13.4
				c0.9,0.1,7.1,0.1,14.9,0.1c15.6,0,38.1-0.1,39.8-0.1c1.3,0,2.6,0,3.9,0c9.7,0,19.9-0.9,19.9-16.2c0-14.2-10.8-16.1-18.2-16.2
				c-20.3,0-18.9,0-39.1,0c-17,0-29.5-9.5-29.5-30.1c0-19.8,13.5-28.9,29.5-28.9H1631.9 M1635.1,325.5h-3.2h-64.2
				c-8.8,0-16.5,2.6-22,7.5c-6.2,5.5-9.4,13.5-9.4,23.4c0,20.1,11.8,32.1,31.5,32.1h39.1c11.2,0.2,16.2,4.6,16.2,14.2
				c0,13.1-7.8,14.2-17.9,14.2c-0.7,0-1.3,0-2,0c-0.7,0-1.3,0-1.9,0c-0.4,0-2.1,0-4.7,0c-7.6,0-23.4,0.1-35.2,0.1
				c-11.2,0-14.2,0-14.8-0.1l-1.3-0.1l-0.6,1.2l-6.7,13.4l-1.5,2.9h3.2h70.2c8.9,0,16.5-2.6,22.1-7.5c6.2-5.5,9.4-13.5,9.4-23.4
				c0-20.1-11.8-32.1-31.5-32.1h-40.3c-9.9-0.2-14.7-5.1-14.7-15c0-9.6,5.3-13.3,19.1-13.3c0.4,0,2,0,4.5,0c7.1,0,21.7-0.1,32.7-0.1
				c10.5,0,13.3,0,13.9,0.1l1.3,0.1l0.6-1.2l6.7-13.4L1635.1,325.5L1635.1,325.5z"/>
		</g>
		<g>
			<path fill="#F05443" d="M1766.9,433.3V326.5h94.4l-7.7,15.3h-70.4V418h74.5v15.3H1766.9z M1785.2,387.6l7.7-15.3h56v15.3H1785.2z
				"/>
			<path fill="#F05443" d="M1859.7,327.5l-6.7,13.3h-70.8V419h74.5v13.3h-88.9V327.5C1798.3,327.5,1829.3,327.5,1859.7,327.5
				 M1847.8,373.3v13.3h-61l6.7-13.3H1847.8 M1862.9,325.5h-3.2h-91.8h-2v2v104.8v2h2h88.9h2v-2V419v-2h-2h-72.5v-28.4h2.6h61h2v-2
				v-13.3v-2h-2h-54.3h-1.2l-0.6,1.1l-6.7,13.3l-0.8,1.5v-44.4h68.8h1.2l0.6-1.1l6.7-13.3L1862.9,325.5L1862.9,325.5z"/>
		</g>
		<g>
			<path fill="#F05443" d="M2067.2,433.3l-17.9-35.6H2008l7.7-15.5h31.5c15,0,21.7-6.2,21.7-20.1c0-14-6.7-20.2-21.7-20.2h-44.8
				v91.3H1986V326.5h68c18.3,0,30.3,10.9,31.4,28.4c0.2,2.8,0.1,5.8,0.1,8.7c0,1.1,0,2.3,0,3.4c0,13.7-6.8,24.4-18.3,28.7l18.9,37.7
				H2067.2z"/>
			<path fill="#F05443" d="M2053.9,327.5c19.6,0,29.5,12.2,30.4,27.4c0.2,3.9,0.1,8.1,0.1,12c0,12.9-6.1,23.9-18.7,28.1l18.7,37.3
				h-16.6l-17.9-35.6h-40.3l6.7-13.5h30.9c12.4,0,22.7-3.9,22.7-21.1c0-16.4-9.4-21.2-22.7-21.2h-45.8v91.3H1987V327.5
				C2009.8,327.5,2031.2,327.5,2053.9,327.5 M2053.9,325.5h-67h-2v2v104.8v2h2h14.4h2v-2V343h43.8c14.5,0,20.7,5.8,20.7,19.2
				c0,13.4-6.2,19.1-20.7,19.1h-30.9h-1.2l-0.6,1.1l-6.7,13.5l-1.4,2.9h3.2h39.1l17.3,34.5l0.6,1.1h1.2h16.6h3.2l-1.5-2.9
				l-17.7-35.3c11.3-4.7,17.9-15.5,17.9-29.2c0-1.1,0-2.2,0-3.3c0-2.9,0.1-5.9-0.1-8.7C2085.2,336.7,2072.8,325.5,2053.9,325.5
				L2053.9,325.5z"/>
		</g>
		<g>
			<path fill="#F05443" d="M2252.4,433.3c-3.6,0-6.9-2.2-8.7-5.7l-48.2-101.1h18.5l38.3,83l38.3-83h18.5l-48.1,101.1
				C2259.3,431.1,2256,433.3,2252.4,433.3z"/>
			<path fill="#F05443" d="M2307.7,327.5l-47.4,99.6c-1.6,3.1-4.6,5.2-7.9,5.2c-3.2,0-6.2-2-7.8-5.2l-47.5-99.6h16.3l38.9,84.4
				l38.9-84.4H2307.7 M2310.8,325.5h-3.2h-16.3h-1.3l-0.5,1.2l-37.1,80.5l-37.1-80.5l-0.5-1.2h-1.3h-16.3h-3.2l1.4,2.9l47.5,99.6
				c1.9,3.9,5.6,6.3,9.6,6.3c3.9,0,7.6-2.4,9.6-6.2l0,0l0,0l47.4-99.6L2310.8,325.5L2310.8,325.5z"/>
		</g>
	</g>
	<g>
		<path fill="#B2B2B2" d="M1696.2,532.3h-9.6v-55.8h9.6V532.3z"/>
		<path fill="#B2B2B2" d="M1737,478.6c3.4,1.5,6.4,3.5,8.9,6c2.5,2.5,4.5,5.5,6,8.9c1.5,3.4,2.2,7,2.2,10.9s-0.7,7.5-2.2,10.9
			c-1.5,3.4-3.5,6.4-6,8.9c-2.5,2.5-5.5,4.5-8.9,6c-3.4,1.5-7,2.2-10.9,2.2h-9.9l3.9-9.6h6c2.4,0,4.8-0.5,7-1.4c2.2-0.9,4.2-2.2,6-4
			c1.7-1.8,3-3.7,4-5.9c0.9-2.2,1.4-4.6,1.4-7.1c0-2.4-0.5-4.8-1.4-7c-0.9-2.2-2.2-4.2-4-6c-1.8-1.7-3.8-3-6-4
			c-2.2-0.9-4.6-1.4-7-1.4h-13.6v23.2v13.6v9.6h-9.6v-55.9h23.2C1729.9,476.4,1733.6,477.1,1737,478.6z"/>
		<path fill="#B2B2B2" d="M1769.2,486v13.6h20.8l2.4,9.6h-23.2v13.6h28v9.6h-37.6v-55.9h37.6v9.6H1769.2z"/>
		<path fill="#B2B2B2" d="M1862.3,532.3h-10.5l-4.3-9.6l-4.3-9.6l-11.3-25.1l-11.3,25.1h14.5l4.3,9.6h-23.2l-4.3,9.6h-10.5
			l25.2-55.9h10.5L1862.3,532.3z"/>
		<path fill="#B2B2B2" d="M1903.5,516.3c0,2.6-0.4,5-1.3,7.1c-0.9,2.1-2.1,3.9-3.6,5.4c-1.6,1.5-3.5,2.6-5.7,3.4
			c-2.2,0.8-4.7,1.2-7.5,1.2c-4.4,0-8.4-0.7-11.8-2.1c-3.5-1.4-6.3-3-8.5-4.8l6.6-6.6c1.8,1.6,3.7,2.8,5.9,3.7
			c1.3,0.5,2.6,0.9,3.8,1c1.2,0.2,2.1,0.2,2.9,0.2c1.4,0,2.6-0.2,3.8-0.5c1.1-0.3,2.1-0.8,3-1.4c1.8-1.3,2.7-3.1,2.7-5.3
			c0-1.3-0.5-2.5-1.4-3.6c-0.7-0.9-1.7-1.5-2.9-2.1c-1-0.5-2-1-3-1.3c-1.1-0.3-2-0.6-2.9-0.9c-0.3-0.1-0.5-0.2-0.7-0.2
			c-0.2,0-0.4-0.1-0.6-0.2c-0.1,0-0.3-0.1-0.5-0.2c-1.1-0.3-2.7-0.9-4.8-1.7c-2.1-0.8-4.2-1.9-6.3-3.3c-4.8-3.2-7.3-7.2-7.3-12
			c0-3.1,0.5-5.8,1.6-7.9c1.1-2.2,2.5-3.9,4.3-5.3c1.8-1.4,3.7-2.3,5.9-2.9c2.2-0.6,4.3-0.9,6.3-0.9c3.8,0,7.1,0.5,9.7,1.4
			c2.6,0.9,4.7,1.8,6.2,2.7c0.8,0.5,1.5,0.9,2,1.4c0.6,0.5,1.1,0.9,1.5,1.2l-6.8,6.9c-1.4-1.4-2.9-2.5-4.4-3.3
			c-2.2-1.1-4.6-1.6-7-1.6c-1.1,0-2.1,0.1-3.2,0.4c-1.1,0.3-2,0.6-2.8,1c-2.3,1.4-3.5,3.3-3.5,5.7c0,1.4,0.5,2.7,1.4,3.7
			c0.7,0.8,1.6,1.5,2.9,2.2c1,0.5,2.1,1,3.2,1.3c1.1,0.3,2.2,0.6,3.1,0.9l1,0.2c0.3,0.1,0.8,0.3,1.5,0.5c0.7,0.2,1.6,0.5,2.6,1
			c1,0.4,2.1,0.9,3.3,1.5c1.2,0.6,2.4,1.3,3.6,2.1C1900.9,507.7,1903.5,511.7,1903.5,516.3z"/>
		<path fill="#B2B2B2" d="M1967,486h-16.4v46.3h-9.6V486h-16.5v-9.6h16.5h9.6h16.4V486z"/>
		<path fill="#B2B2B2" d="M1996.3,475.2c4,0,7.8,0.8,11.3,2.3c3.5,1.5,6.6,3.6,9.3,6.2c2.6,2.6,4.7,5.7,6.2,9.3
			c1.5,3.5,2.3,7.3,2.3,11.3c0,4-0.8,7.8-2.3,11.3c-1.5,3.5-3.6,6.6-6.2,9.3c-2.6,2.6-5.7,4.7-9.3,6.2c-3.5,1.5-7.3,2.3-11.3,2.3
			c-4,0-7.8-0.8-11.3-2.3c-3.5-1.5-6.6-3.6-9.3-6.2c-2.6-2.6-4.7-5.7-6.2-9.3c-1.5-3.5-2.3-7.3-2.3-11.3c0-4,0.8-7.8,2.3-11.3
			c1.5-3.5,3.6-6.6,6.2-9.3c2.6-2.6,5.7-4.7,9.3-6.2C1988.6,476,1992.3,475.2,1996.3,475.2z M1996.3,484.8c-2.6,0-5.1,0.5-7.4,1.5
			c-2.3,1-4.4,2.4-6.3,4.3c-1.9,1.9-3.3,4-4.3,6.3c-1,2.3-1.5,4.8-1.5,7.4c0,2.6,0.5,5.1,1.5,7.5c1,2.4,2.4,4.5,4.3,6.3
			c1.9,1.9,4,3.3,6.3,4.2c2.3,1,4.8,1.4,7.4,1.4c2.6,0,5.1-0.5,7.5-1.4c2.4-1,4.5-2.4,6.3-4.2c1.9-1.9,3.3-4,4.2-6.3
			c1-2.4,1.4-4.9,1.4-7.5c0-2.6-0.5-5.1-1.4-7.4c-1-2.3-2.4-4.4-4.2-6.3c-1.9-1.9-4-3.3-6.3-4.3
			C2001.4,485.3,1998.9,484.8,1996.3,484.8z"/>
		<path fill="#B2B2B2" d="M2076.4,478c2.4,1.1,4.6,2.5,6.4,4.3c1.8,1.8,3.2,3.9,4.3,6.3c1.1,2.4,1.6,5,1.6,7.8
			c0,2.8-0.5,5.4-1.6,7.8c-1.1,2.4-2.5,4.6-4.3,6.4c-1.8,1.8-3.9,3.2-6.4,4.3c-2.4,1.1-5.1,1.6-7.8,1.6h-8l3.9-9.6h4.1
			c2.9,0,5.4-1,7.4-3.1c2.1-2.1,3.1-4.6,3.1-7.4c0-2.9-1-5.4-3.1-7.3c-2.1-2.1-4.6-3.1-7.4-3.1h-11.3v46.3h-9.6v-55.9h20.8
			C2071.4,476.4,2074,476.9,2076.4,478z"/>
		<path fill="#B2B2B2" d="M2135.3,496.5c0,2-0.3,4-0.8,5.8c-0.6,1.8-1.3,3.5-2.3,5.1c-1,1.5-2.2,2.9-3.6,4.2c-1.4,1.3-3,2.3-4.7,3.1
			l11.4,17.7h-11.4l-10.1-15.7h-6.5l3.9-9.6h4.2c2.9,0,5.4-1,7.4-3.1c1-1,1.7-2.2,2.2-3.4c0.5-1.3,0.8-2.6,0.8-4
			c0-1.4-0.3-2.7-0.8-4c-0.5-1.3-1.3-2.4-2.2-3.4c-2.1-2.1-4.6-3.1-7.4-3.1h-11.3v5.3V507v9.6v15.7h-9.6v-15.7v-25.3v-14.9h20.9
			c2.8,0,5.4,0.5,7.8,1.6c2.4,1.1,4.5,2.5,6.3,4.3c1.8,1.8,3.2,3.9,4.3,6.3C2134.7,491.1,2135.3,493.7,2135.3,496.5z"/>
		<path fill="#B2B2B2" d="M2169.5,475.2c4,0,7.8,0.8,11.3,2.3c3.5,1.5,6.6,3.6,9.3,6.2c2.6,2.6,4.7,5.7,6.2,9.3
			c1.5,3.5,2.3,7.3,2.3,11.3c0,4-0.8,7.8-2.3,11.3c-1.5,3.5-3.6,6.6-6.2,9.3c-2.6,2.6-5.7,4.7-9.3,6.2c-3.5,1.5-7.3,2.3-11.3,2.3
			c-4,0-7.8-0.8-11.3-2.3c-3.5-1.5-6.6-3.6-9.3-6.2c-2.6-2.6-4.7-5.7-6.2-9.3c-1.5-3.5-2.3-7.3-2.3-11.3c0-4,0.8-7.8,2.3-11.3
			c1.5-3.5,3.6-6.6,6.2-9.3c2.6-2.6,5.7-4.7,9.3-6.2C2161.8,476,2165.5,475.2,2169.5,475.2z M2169.5,484.8c-2.6,0-5.1,0.5-7.4,1.5
			c-2.3,1-4.4,2.4-6.3,4.3c-1.9,1.9-3.3,4-4.3,6.3c-1,2.3-1.5,4.8-1.5,7.4c0,2.6,0.5,5.1,1.5,7.5c1,2.4,2.4,4.5,4.3,6.3
			c1.9,1.9,4,3.3,6.3,4.2c2.3,1,4.8,1.4,7.4,1.4c2.6,0,5.1-0.5,7.5-1.4c2.4-1,4.5-2.4,6.3-4.2c1.9-1.9,3.3-4,4.2-6.3
			c1-2.4,1.4-4.9,1.4-7.5c0-2.6-0.5-5.1-1.4-7.4c-1-2.3-2.4-4.4-4.2-6.3c-1.9-1.9-4-3.3-6.3-4.3
			C2174.6,485.3,2172.1,484.8,2169.5,484.8z"/>
		<path fill="#B2B2B2" d="M2213.8,486v13.6h20.8l2.4,9.6h-23.2v23.2h-9.6v-55.9h37.6v9.6H2213.8z"/>
		<path fill="#B2B2B2" d="M2256.2,532.3h-9.6v-55.8h9.6V532.3z"/>
		<path fill="#B2B2B2" d="M2304.2,486h-16.4v46.3h-9.6V486h-16.4v-9.6h16.4h9.6h16.4V486z"/>
	</g>
	<rect x="662.9" y="503.2" fill="#B2B2B2" width="951.4" height="2.2"/>
</g>
</svg>
